<svg width="12" height="12" viewBox="0 0 12 12" fill="none" xmlns="http://www.w3.org/2000/svg">
<circle opacity="0.7" cx="6" cy="6" r="6" fill="#9D9D9D"/>
<path fill-rule="evenodd" clip-rule="evenodd" d="M8.01057 3.98826C8.12773 4.10542 8.12773 4.29537 8.01057 4.41252L4.41057 8.01252C4.29341 8.12968 4.10346 8.12968 3.98631 8.01252C3.86915 7.89537 3.86915 7.70542 3.98631 7.58826L7.58631 3.98826C7.70346 3.8711 7.89341 3.8711 8.01057 3.98826Z" fill="white"/>
<path fill-rule="evenodd" clip-rule="evenodd" d="M3.98631 3.98826C4.10346 3.8711 4.29341 3.8711 4.41057 3.98826L8.01057 7.58826C8.12773 7.70542 8.12773 7.89537 8.01057 8.01252C7.89341 8.12968 7.70346 8.12968 7.58631 8.01252L3.98631 4.41252C3.86915 4.29537 3.86915 4.10542 3.98631 3.98826Z" fill="white"/>
</svg>
