<svg width="118" height="15" viewBox="0 0 118 15" fill="none" xmlns="http://www.w3.org/2000/svg">
<path d="M21.6035 7.00293H20.708C20.585 6.58366 20.348 6.24186 19.9971 5.97754C19.6507 5.70866 19.2178 5.57422 18.6982 5.57422C18.0055 5.57422 17.4518 5.83626 17.0371 6.36035C16.6224 6.87988 16.415 7.57487 16.415 8.44531C16.415 9.32487 16.6224 10.0244 17.0371 10.5439C17.4564 11.0589 18.0146 11.3164 18.7119 11.3164C19.2178 11.3164 19.6439 11.1956 19.9902 10.9541C20.3411 10.708 20.5781 10.3708 20.7012 9.94238H21.6035C21.4759 10.5895 21.1501 11.1136 20.626 11.5146C20.1019 11.9157 19.4616 12.1162 18.7051 12.1162C17.7298 12.1162 16.9505 11.7858 16.3672 11.125C15.7839 10.4642 15.4922 9.57096 15.4922 8.44531C15.4922 7.33333 15.7839 6.44466 16.3672 5.7793C16.9505 5.10938 17.7275 4.77441 18.6982 4.77441C19.473 4.77441 20.1178 4.98633 20.6328 5.41016C21.1523 5.83398 21.4759 6.36491 21.6035 7.00293ZM24.7344 8.27441L28.4668 12H27.2773L23.8184 8.53418H23.7773V12H22.8818V4.89062H23.7773V8.08301H23.8184L27.1885 4.89062H28.3301L24.7344 8.27441ZM31.5771 11.3369C32.2015 11.3369 32.7279 11.1432 33.1562 10.7559C33.5846 10.3685 33.7988 9.89225 33.7988 9.32715V8.54102L31.6934 8.68457C31.1328 8.72103 30.7021 8.85775 30.4014 9.09473C30.1006 9.32715 29.9502 9.63932 29.9502 10.0312C29.9502 10.4186 30.1006 10.7331 30.4014 10.9746C30.7021 11.2161 31.0941 11.3369 31.5771 11.3369ZM31.3926 12.1162C30.6908 12.1162 30.1211 11.9248 29.6836 11.542C29.2507 11.1546 29.0342 10.651 29.0342 10.0312C29.0342 9.42057 29.2529 8.9375 29.6904 8.58203C30.1325 8.22656 30.7637 8.02148 31.584 7.9668L33.7988 7.83008V7.21484C33.7988 6.69987 33.6439 6.29883 33.334 6.01172C33.0241 5.72005 32.5934 5.57422 32.042 5.57422C31.5225 5.57422 31.0986 5.69499 30.7705 5.93652C30.4469 6.17806 30.2464 6.5153 30.1689 6.94824H29.2939C29.3441 6.30111 29.6175 5.77702 30.1143 5.37598C30.6156 4.97493 31.265 4.77441 32.0625 4.77441C32.8737 4.77441 33.5163 4.98633 33.9902 5.41016C34.4642 5.83398 34.7012 6.4082 34.7012 7.13281V12H33.8398V10.6465H33.8193C33.6234 11.0885 33.3021 11.444 32.8555 11.7129C32.4089 11.9818 31.9212 12.1162 31.3926 12.1162ZM41.5713 12H40.6758V8.78711H40.5938C40.1335 9.20638 39.5251 9.41602 38.7686 9.41602C37.9346 9.41602 37.292 9.18587 36.8408 8.72559C36.3896 8.2653 36.1641 7.64551 36.1641 6.86621V4.89062H37.0596V6.85254C37.0596 7.39486 37.2077 7.82552 37.5039 8.14453C37.8047 8.45898 38.2331 8.61621 38.7891 8.61621C39.5911 8.61621 40.2201 8.35872 40.6758 7.84375V4.89062H41.5713V12ZM45.5635 11.3369C46.1878 11.3369 46.7142 11.1432 47.1426 10.7559C47.571 10.3685 47.7852 9.89225 47.7852 9.32715V8.54102L45.6797 8.68457C45.1191 8.72103 44.6885 8.85775 44.3877 9.09473C44.0869 9.32715 43.9365 9.63932 43.9365 10.0312C43.9365 10.4186 44.0869 10.7331 44.3877 10.9746C44.6885 11.2161 45.0804 11.3369 45.5635 11.3369ZM45.3789 12.1162C44.6771 12.1162 44.1074 11.9248 43.6699 11.542C43.237 11.1546 43.0205 10.651 43.0205 10.0312C43.0205 9.42057 43.2393 8.9375 43.6768 8.58203C44.1188 8.22656 44.75 8.02148 45.5703 7.9668L47.7852 7.83008V7.21484C47.7852 6.69987 47.6302 6.29883 47.3203 6.01172C47.0104 5.72005 46.5798 5.57422 46.0283 5.57422C45.5088 5.57422 45.085 5.69499 44.7568 5.93652C44.4333 6.17806 44.2327 6.5153 44.1553 6.94824H43.2803C43.3304 6.30111 43.6038 5.77702 44.1006 5.37598C44.6019 4.97493 45.2513 4.77441 46.0488 4.77441C46.86 4.77441 47.5026 4.98633 47.9766 5.41016C48.4505 5.83398 48.6875 6.4082 48.6875 7.13281V12H47.8262V10.6465H47.8057C47.6097 11.0885 47.2884 11.444 46.8418 11.7129C46.3952 11.9818 45.9076 12.1162 45.3789 12.1162ZM55.332 4.89062V5.64258H52.9121V12H52.0166V5.64258H49.5967V4.89062H55.332ZM58.873 8.05566H57.3418V11.248H58.873C59.388 11.248 59.7982 11.1022 60.1035 10.8105C60.4134 10.5189 60.5684 10.1315 60.5684 9.64844C60.5684 9.16536 60.4134 8.78027 60.1035 8.49316C59.7982 8.2015 59.388 8.05566 58.873 8.05566ZM56.4463 12V4.89062H57.3418V7.30371H58.8867C59.6706 7.30371 60.2949 7.51562 60.7598 7.93945C61.2292 8.35872 61.4639 8.92839 61.4639 9.64844C61.4639 10.3685 61.2292 10.9404 60.7598 11.3643C60.2949 11.7881 59.6706 12 58.8867 12H56.4463ZM70.3916 12V5.64258H66.543V12H65.6475V4.89062H71.2871V12H70.3916ZM76.3115 4.77441C77.2139 4.77441 77.943 5.11165 78.499 5.78613C79.0596 6.45605 79.3398 7.34245 79.3398 8.44531C79.3398 9.54818 79.0618 10.4368 78.5059 11.1113C77.9544 11.7812 77.2298 12.1162 76.332 12.1162C75.7715 12.1162 75.2747 11.9727 74.8418 11.6855C74.4134 11.3939 74.1035 11.0111 73.9121 10.5371H73.8848V14.3516H72.9824V4.89062H73.8369V6.39453H73.8643C74.0648 5.91146 74.3815 5.52181 74.8145 5.22559C75.2474 4.9248 75.7464 4.77441 76.3115 4.77441ZM76.1543 11.3164C76.8424 11.3164 77.3916 11.0566 77.8018 10.5371C78.2119 10.013 78.417 9.31576 78.417 8.44531C78.417 7.57943 78.2096 6.88444 77.7949 6.36035C77.3848 5.83626 76.8379 5.57422 76.1543 5.57422C75.4798 5.57422 74.9329 5.84082 74.5137 6.37402C74.0944 6.90267 73.8848 7.5931 73.8848 8.44531C73.8848 9.30208 74.0944 9.99479 74.5137 10.5234C74.9329 11.0521 75.4798 11.3164 76.1543 11.3164ZM81.5684 12H80.6729V4.89062H81.5684V10.6055H81.6162L85.5742 4.89062H86.4697V12H85.5742V6.28516H85.5332L81.5684 12ZM89.0469 12H88.1514V4.89062H89.2383L92.0137 10.8105H92.0615L94.8369 4.89062H95.8828V12H94.9805V6.49023H94.9463L92.3691 11.8564H91.665L89.0879 6.49023H89.0469V12ZM100.388 5.56738C99.7542 5.56738 99.2324 5.78841 98.8223 6.23047C98.4167 6.66797 98.1956 7.23991 98.1592 7.94629H102.548C102.539 7.23991 102.336 6.66797 101.939 6.23047C101.543 5.78841 101.026 5.56738 100.388 5.56738ZM102.493 9.9834H103.389C103.279 10.6077 102.956 11.1204 102.418 11.5215C101.885 11.918 101.231 12.1162 100.456 12.1162C99.458 12.1162 98.6696 11.7904 98.0908 11.1387C97.512 10.4824 97.2227 9.59147 97.2227 8.46582C97.2227 7.3584 97.512 6.46745 98.0908 5.79297C98.6696 5.11393 99.4398 4.77441 100.401 4.77441C101.34 4.77441 102.088 5.09342 102.644 5.73145C103.2 6.36947 103.478 7.2194 103.478 8.28125V8.66406H98.1523V8.71875C98.1523 9.52083 98.362 10.1566 98.7812 10.626C99.2005 11.0908 99.7656 11.3232 100.477 11.3232C101.001 11.3232 101.443 11.2002 101.803 10.9541C102.163 10.708 102.393 10.3844 102.493 9.9834ZM108.153 4.77441C109.056 4.77441 109.785 5.11165 110.341 5.78613C110.901 6.45605 111.182 7.34245 111.182 8.44531C111.182 9.54818 110.904 10.4368 110.348 11.1113C109.796 11.7812 109.072 12.1162 108.174 12.1162C107.613 12.1162 107.117 11.9727 106.684 11.6855C106.255 11.3939 105.945 11.0111 105.754 10.5371H105.727V14.3516H104.824V4.89062H105.679V6.39453H105.706C105.907 5.91146 106.223 5.52181 106.656 5.22559C107.089 4.9248 107.588 4.77441 108.153 4.77441ZM107.996 11.3164C108.684 11.3164 109.233 11.0566 109.644 10.5371C110.054 10.013 110.259 9.31576 110.259 8.44531C110.259 7.57943 110.051 6.88444 109.637 6.36035C109.227 5.83626 108.68 5.57422 107.996 5.57422C107.322 5.57422 106.775 5.84082 106.355 6.37402C105.936 6.90267 105.727 7.5931 105.727 8.44531C105.727 9.30208 105.936 9.99479 106.355 10.5234C106.775 11.0521 107.322 11.3164 107.996 11.3164Z" fill="#577BEC"/>
<path fill-rule="evenodd" clip-rule="evenodd" d="M1.5 8C1.77614 8 2 8.22386 2 8.5V10.5C2 10.6326 2.05268 10.7598 2.14645 10.8536C2.24021 10.9473 2.36739 11 2.5 11H9.5C9.63261 11 9.75978 10.9473 9.85355 10.8536C9.94732 10.7598 10 10.6326 10 10.5V8.5C10 8.22386 10.2239 8 10.5 8C10.7761 8 11 8.22386 11 8.5V10.5C11 10.8978 10.842 11.2794 10.5607 11.5607C10.2794 11.842 9.89783 12 9.5 12H2.5C2.10217 12 1.72064 11.842 1.43934 11.5607C1.15804 11.2794 1 10.8978 1 10.5V8.5C1 8.22386 1.22386 8 1.5 8Z" fill="#577BEC"/>
<path fill-rule="evenodd" clip-rule="evenodd" d="M3.14645 5.64645C3.34171 5.45118 3.65829 5.45118 3.85355 5.64645L6 7.79289L8.14645 5.64645C8.34171 5.45118 8.65829 5.45118 8.85355 5.64645C9.04882 5.84171 9.04882 6.15829 8.85355 6.35355L6.35355 8.85355C6.15829 9.04882 5.84171 9.04882 5.64645 8.85355L3.14645 6.35355C2.95118 6.15829 2.95118 5.84171 3.14645 5.64645Z" fill="#577BEC"/>
<path fill-rule="evenodd" clip-rule="evenodd" d="M6 2C6.27614 2 6.5 2.22386 6.5 2.5V8.5C6.5 8.77614 6.27614 9 6 9C5.72386 9 5.5 8.77614 5.5 8.5V2.5C5.5 2.22386 5.72386 2 6 2Z" fill="#577BEC"/>
</svg>
