<svg width="36" height="45" viewBox="0 0 36 45" fill="none" xmlns="http://www.w3.org/2000/svg">
<path d="M18.5532 21.6636L18.5606 21.6666L18.5679 21.6694C18.7442 21.7378 18.9055 21.8399 19.0428 21.9699L23.536 26.4631L23.5383 26.4653C23.6747 26.6007 23.783 26.7617 23.857 26.9391C23.9309 27.1165 23.9689 27.3068 23.9689 27.499C23.9689 27.6912 23.9309 27.8815 23.857 28.0589C23.783 28.2363 23.6747 28.3974 23.5383 28.5327L23.5383 28.5327L23.5337 28.5373C23.3983 28.6738 23.2373 28.7821 23.0599 28.856C22.8825 28.9299 22.6922 28.9679 22.5 28.9679C22.3078 28.9679 22.1175 28.9299 21.9401 28.856C21.7641 28.7826 21.6042 28.6755 21.4695 28.5405L20.821 27.8696L19.4559 26.4574V28.4215V34.249C19.4559 34.6351 19.3025 35.0055 19.0295 35.2785C18.7564 35.5515 18.3861 35.7049 18 35.7049C17.6139 35.7049 17.2436 35.5515 16.9705 35.2785C16.6975 35.0055 16.5441 34.6351 16.5441 34.249V28.4215V26.4574L15.179 27.8696L14.5317 28.5393C14.2574 28.8113 13.8866 28.9641 13.5 28.9641C13.1114 28.9641 12.7388 28.8098 12.464 28.535C12.1893 28.2602 12.0349 27.8876 12.0349 27.499C12.0349 27.1105 12.1893 26.7378 12.464 26.463L16.9572 21.9699C17.0945 21.8399 17.2558 21.7378 17.4321 21.6694L17.4394 21.6666L17.4468 21.6636C17.8012 21.518 18.1988 21.518 18.5532 21.6636ZM35.0709 15.5065V15.6365L35.1123 15.7597C35.1564 15.8906 35.1877 16.0255 35.2059 16.1624V16.249V38.749C35.2059 40.3286 34.5784 41.8435 33.4614 42.9605C32.3445 44.0774 30.8296 44.7049 29.25 44.7049H6.75C5.1704 44.7049 3.6555 44.0774 2.53856 42.9605C1.42161 41.8435 0.794118 40.3286 0.794118 38.749V7.24902C0.794118 5.66943 1.42161 4.15452 2.53856 3.03758C3.6555 1.92063 5.1704 1.29314 6.75 1.29314H20.3016C20.443 1.32654 20.5797 1.37817 20.708 1.4468L20.8835 1.54064H21.0825H21.1123C21.2102 1.59883 21.3017 1.6673 21.3854 1.74495L34.8666 15.2262C34.9442 15.3098 35.0127 15.4014 35.0709 15.4992V15.5065ZM23.0615 7.61L21.7059 6.25435V8.17152V11.749C21.7059 12.5564 22.0266 13.3307 22.5975 13.9015C23.1684 14.4724 23.9426 14.7931 24.75 14.7931H28.3275H30.2447L28.889 13.4375L23.0615 7.61ZM4.59748 40.9015L5.15901 40.34L4.59749 40.9015C5.16837 41.4724 5.94265 41.7931 6.75 41.7931H29.25C30.0574 41.7931 30.8316 41.4724 31.4025 40.9015C31.9734 40.3307 32.2941 39.5564 32.2941 38.749V18.499V17.7049H31.5H24.75C23.1704 17.7049 21.6555 17.0774 20.5386 15.9605C19.4216 14.8435 18.7941 13.3286 18.7941 11.749V4.99902V4.20491H18H6.75C5.94265 4.20491 5.16837 4.52562 4.59748 5.09651C4.0266 5.66739 3.70588 6.44167 3.70588 7.24902V38.749C3.70588 39.5564 4.0266 40.3307 4.59748 40.9015Z" fill="#577BEC" stroke="#EFF3FE" stroke-width="1.58824"/>
</svg>
